<svg version="1.2" xmlns="http://www.w3.org/2000/svg" viewBox="0 0 826 200" width="826" height="200">
	<style>
		.s0 { opacity: 1;fill: #4caf50 } 
	</style>
	<path id="Path 0" fill-rule="evenodd" class="s0" d="m397.6 21c14.12 0 14.41 0.04 14.89 2.25 0.26 1.24 0.49 35.44 0.5 76 0.01 65.75-0.16 73.91-1.56 75.25-1.23 1.17-4.32 1.5-14 1.5-9.72 0-12.76-0.33-13.93-1.5-0.89-0.89-1.5-3.33-1.5-10.5l-5.25 4.31c-2.89 2.36-7.95 5.37-11.25 6.67-3.68 1.45-8.9 2.54-13.5 2.81-4.13 0.24-9.75-0.03-12.5-0.6-2.75-0.58-7.7-2.07-11-3.32-4.22-1.6-7.88-4.07-12.34-8.32-3.48-3.33-7.81-8.75-9.62-12.05-1.8-3.3-3.98-8.25-4.83-11-0.85-2.75-1.86-7.25-2.24-10-0.38-2.75-0.61-9.05-0.53-14 0.09-4.95 0.65-11.25 1.24-14 0.58-2.75 2.28-7.7 3.76-11 1.49-3.3 4.31-8.25 6.27-11 1.96-2.75 5.97-6.86 8.93-9.12 2.95-2.27 6.48-4.71 7.86-5.41 1.37-0.7 5.42-2.11 9-3.12 3.82-1.09 9.8-1.86 14.5-1.87 5.15-0.02 10.32 0.68 14.5 1.95 3.57 1.08 8.52 3.41 11 5.18 2.47 1.76 4.83 3.7 5.23 4.3 0.41 0.6 0.75-10.16 0.77-23.91 0.01-13.75 0.29-26.01 0.61-27.25 0.57-2.2 0.89-2.25 14.99-2.25zm-61.79 78.32c-1.59 2.3-3.55 6.43-4.36 9.18-0.81 2.75-1.47 8.26-1.46 12.25 0.01 3.99 0.72 9.39 1.6 12 0.87 2.61 2.78 6.49 4.25 8.62 1.46 2.13 4.46 4.93 6.66 6.22 2.27 1.34 6.59 2.65 10 3.04 4.46 0.5 7.42 0.23 11.5-1.06 3.34-1.05 7.01-3.17 9.33-5.4 2.11-2.02 4.77-5.47 5.91-7.67 1.52-2.94 2.2-6.52 2.53-13.5 0.26-5.28-0.02-11.28-0.62-13.5-0.6-2.2-2.45-6.14-4.12-8.75-1.9-2.97-4.81-5.76-7.78-7.46-3.72-2.11-6.38-2.78-12.25-3.07-6.53-0.32-8.2-0.03-12.91 2.28-3.57 1.75-6.38 4.07-8.28 6.82zm128.69-77.82l0.5 125.5 30.75-0.02c23.5-0.01 31.05 0.29 32.02 1.25 0.88 0.89 1.26 4.95 1.25 13.52-0.02 11.24-0.18 12.33-2.02 13.25-1.24 0.62-18.83 1-46.5 1-38.22 0-44.71-0.21-46-1.5-1.31-1.31-1.5-11.02-1.49-75.25 0.01-40.56 0.29-74.77 0.63-76.03 0.6-2.25 0.73-2.27 30.86-1.72zm97 0.28c1.65 0.28 4.12 1.07 5.5 1.77 1.37 0.69 3.49 2.32 4.69 3.6 1.21 1.29 2.9 4.04 3.75 6.1 0.86 2.06 1.55 4.99 1.54 6.5-0.01 1.51-0.84 4.55-1.83 6.75-0.99 2.2-3.23 5.24-4.98 6.75-1.74 1.51-5.08 3.27-7.42 3.91-3.32 0.9-5.13 0.87-8.25-0.13-2.2-0.71-5.7-2.69-7.77-4.41-2.08-1.72-4.22-4.47-4.77-6.12-0.55-1.65-0.98-4.8-0.95-7 0.02-2.2 0.84-5.8 1.82-8 0.99-2.2 3.12-4.98 4.73-6.18 1.62-1.2 4.74-2.6 6.94-3.11 2.2-0.51 5.35-0.7 7-0.43zm184.96-0.28l0.77 4.5c0.43 2.48 0.66 21.94 0.52 43.25-0.14 21.31 0.09 38.75 0.5 38.75 0.41 0 1.93-1.46 3.37-3.25 1.44-1.79 5.68-6.62 9.41-10.75 3.74-4.12 10.99-12.12 25.47-28.02l17.75 0.01c9.76 0.01 17.75 0.35 17.74 0.76 0 0.41-0.79 1.93-1.75 3.37-0.96 1.44-6.24 7.49-11.74 13.46-5.5 5.96-12.69 13.79-15.97 17.38q-4.91 5.4-12.58 13.54l14.05 19c7.73 10.45 15.28 20.55 16.78 22.45 1.5 1.89 4.86 6.39 7.48 10 2.61 3.6 4.75 7.11 4.75 7.8-0.01 0.69-0.68 1.47-1.51 1.75-0.83 0.28-8.14 0.5-16.25 0.51-10.83 0-15.28-0.36-16.75-1.36-1.1-0.75-4.17-4.47-6.83-8.26-2.65-3.79-6.83-9.59-9.27-12.89-2.45-3.3-6.23-8.47-8.4-11.5-2.17-3.03-4.64-6.4-5.49-7.5-1.51-1.95-1.65-1.89-10.67 7l-0.02 15.5c-0.01 8.53-0.41 16.18-0.88 17-0.68 1.18-3.66 1.58-14.15 1.86-11.16 0.3-13.57 0.1-15.04-1.25-1.64-1.51-1.75-6.39-1.74-75.36 0.01-40.56 0.29-74.77 0.63-76.03 0.6-2.25 0.75-2.27 29.82-1.72zm-723.96 1.58c13.24-0.13 15.19 0.06 16.59 1.64 0.88 0.98 4.53 7.18 8.11 13.78 3.58 6.6 8.33 15.38 10.54 19.5 2.22 4.13 5.85 10.88 8.06 15 2.22 4.13 7.33 13.64 18.7 34.77l5.5-10.08c3.03-5.54 8.43-15.52 12-22.17 3.58-6.65 10.78-20.11 16-29.9 5.22-9.8 10.51-18.9 11.75-20.22 2.19-2.33 2.69-2.4 18-2.44 11.62-0.04 16.08 0.29 17.01 1.25 0.98 1.02 1.19 16.79 0.98 74.29-0.15 40.15-0.49 73.68-0.75 74.5-0.27 0.82-1.17 1.81-1.99 2.18-0.82 0.37-6.68 0.7-13 0.74-6.32 0.03-12.51-0.17-16-0.92l-0.02-98.5-12.79 23.5c-7.04 12.93-14.75 27.1-17.14 31.5-2.38 4.4-5.53 9.8-9.62 16l-20.43 0.5-2.37-3.25c-1.31-1.79-7.9-13.6-14.64-26.25-6.75-12.65-13.73-25.48-15.52-28.5-1.79-3.03-4.2-7.3-7.48-13.5l0.01 48.25c0 42.56-0.19 48.43-1.57 49.75-1.21 1.15-4.17 1.5-12.75 1.49-6.15-0.01-12.19-0.24-15.68-0.99l-0.24-75.43c-0.24-74.6-0.22-75.43 1.75-75.88 1.09-0.25 8.74-0.52 16.99-0.61zm213 40.02c6.14-0.04 12.32 0.55 16 1.52 3.3 0.87 8.25 2.73 11 4.13 2.75 1.4 6.71 3.94 8.81 5.65 2.09 1.7 5.53 5.57 7.63 8.6 2.11 3.02 4.57 7.3 5.48 9.5 0.9 2.2 2.3 7.26 3.11 11.25 0.81 3.99 1.47 10.85 1.47 15.25 0 5.97-0.4 8.38-1.57 9.5-1.34 1.28-7.1 1.5-39 1.5-20.59 0-37.44 0.34-37.44 0.75-0.01 0.41 0.75 3 1.69 5.75 1.06 3.1 3.34 6.61 6.02 9.25 3.16 3.13 6.02 4.78 10.8 6.25 4.67 1.44 8.12 1.85 12.25 1.48 3.16-0.29 7.1-0.8 8.75-1.12 1.65-0.33 4.8-1.52 7-2.64 2.2-1.12 5.8-3.35 12-7.88l6.25 6.83c3.44 3.76 6.54 7.95 6.89 9.33 0.49 1.94 0.06 2.95-1.93 4.5-1.41 1.1-4.72 3.57-7.35 5.5-2.64 1.93-7.28 4.49-10.33 5.71-3.04 1.22-8 2.68-11.03 3.26-3.03 0.58-9.78 1.04-15 1.02-7.17-0.02-11.59-0.65-18-2.55-4.68-1.39-10.75-3.83-13.5-5.44-2.75-1.61-6.91-4.63-9.24-6.71-2.33-2.09-5.83-6.49-7.78-9.79-1.95-3.3-4.46-8.93-5.56-12.5-1.1-3.58-2.27-10.55-2.6-15.5-0.35-5.45-0.09-11.96 0.67-16.5 0.69-4.13 2.15-9.75 3.24-12.5 1.09-2.75 3.51-7.36 5.37-10.25 1.87-2.89 5.36-7.16 7.76-9.5 2.39-2.34 7.46-5.81 11.25-7.73 3.79-1.91 9.14-4.01 11.89-4.66 2.75-0.65 9.5-1.22 15-1.26zm-16.82 30.98c-2.36 2.12-4.55 5.42-5.75 8.67-1.06 2.89-1.93 5.47-1.93 5.75 0 0.27 11.14 0.51 24.75 0.52l24.75 0.02c-1.16-6.23-2.22-9.5-3.11-11.29-0.88-1.79-2.57-4.05-3.75-5.03-1.18-0.98-3.71-2.45-5.64-3.27-2.19-0.94-6.49-1.48-11.5-1.44-4.4 0.04-9.35 0.65-11 1.36-1.65 0.71-4.72 2.83-6.82 4.71zm437.82-31.04c5.55-0.06 10.14 0.57 15 2.07 3.85 1.18 8.13 2.85 9.5 3.71 1.38 0.87 3.74 2.72 5.26 4.13 1.52 1.4 3.74 4.12 4.95 6.05 1.2 1.92 2.99 6.2 3.98 9.5 1.6 5.34 1.8 10.44 1.81 86.5l-2.25 0.49c-1.24 0.26-7.54 0.49-14 0.5-9.12 0.01-12.09-0.33-13.25-1.49-1.28-1.28-1.5-6.69-1.49-36.25 0.01-34.09-0.04-34.84-2.25-39.25-1.65-3.28-3.48-5.13-6.76-6.82-3.73-1.93-5.69-2.26-11.5-1.97-5.36 0.27-7.94 0.94-11 2.88-2.56 1.62-4.9 4.31-9 12.41l-0.5 69.5-3.25 0.58c-1.79 0.32-8.5 0.43-14.92 0.25-6.42-0.18-11.89-0.56-12.17-0.83-0.28-0.28-0.61-1.63-0.74-3-0.13-1.38-0.16-25.79 0.08-106l14.25 0.02c7.84 0 14.84 0.34 15.56 0.75 0.88 0.49 1.13 1.94 0.75 4.48-0.31 2.06-0.22 3.77 0.19 3.79 0.41 0.03 1.42-0.69 2.25-1.59 0.83-0.9 3.52-2.92 6-4.49 2.48-1.58 6.98-3.53 10-4.35 3.02-0.81 9.1-1.52 13.5-1.57zm-83 3.46l0.22 54c0.21 50.3 0.11 54.05-1.5 54.68-0.94 0.37-7.23 0.71-13.97 0.75-9.63 0.05-12.57-0.25-13.75-1.43-1.29-1.29-1.5-8.52-1.49-52.75 0.01-28.19 0.29-52.27 0.63-53.53 0.6-2.25 0.75-2.27 29.86-1.72z"/>
</svg>