<svg width="164" height="36" viewBox="0 0 164 36" fill="none" xmlns="http://www.w3.org/2000/svg">
<path d="M16.5128 0.0106715C16.4992 0.0251434 16.2486 0.0586572 15.9563 0.085316C15.664 0.112737 15.0657 0.203377 14.6276 0.287161C14.1887 0.371708 13.4545 0.545371 12.9952 0.674095C12.5358 0.802818 11.955 0.98486 11.7044 1.07931C11.4539 1.17299 11.1122 1.30705 10.9452 1.37712C10.7781 1.44644 10.3848 1.63 10.072 1.78462C9.75845 1.93848 9.16091 2.26829 8.74332 2.51736C8.32573 2.76643 7.81323 3.09014 7.60443 3.23638C7.39563 3.38339 6.98563 3.69111 6.69332 3.92114C6.401 4.1504 5.69945 4.80468 5.1338 5.37442C4.56815 5.94339 3.8871 6.70127 3.61908 7.05697C3.35182 7.41344 2.94637 7.99536 2.71784 8.35183C2.4893 8.70829 2.13928 9.32525 1.93959 9.72285C1.74067 10.1204 1.48632 10.6521 1.37546 10.9035C1.26461 11.1548 1.07859 11.6514 0.963186 12.0079C0.847019 12.3644 0.697445 12.8435 0.63063 13.0742C0.563815 13.305 0.475741 13.6478 0.4355 13.8359C0.39526 14.0241 0.323889 14.4186 0.277574 14.7119C0.23126 15.0051 0.158371 15.5025 0.116611 15.8163C0.0748521 16.1309 0.0255003 16.9535 0.00651878 17.6443C-0.0117034 18.3352 0.00955576 19.2263 0.0543521 19.6247C0.0991484 20.023 0.185704 20.6392 0.246445 20.9957C0.307186 21.3522 0.45676 22.0377 0.578241 22.5191C0.700482 23.0005 0.925223 23.7553 1.07783 24.1948C1.22969 24.6343 1.51289 25.3198 1.70726 25.7181C1.90087 26.1165 2.22508 26.7327 2.42856 27.0891C2.63204 27.4456 3.00559 28.0275 3.25843 28.384C3.51126 28.7405 3.89089 29.2371 4.10197 29.4884C4.31304 29.7398 4.88021 30.3408 5.36158 30.8244C5.84371 31.3073 6.4086 31.8481 6.61739 32.0256C6.82619 32.2031 7.42373 32.6342 7.9461 32.9838C8.46771 33.3334 9.18521 33.7744 9.54054 33.9641C9.89512 34.1537 10.4934 34.4371 10.8692 34.594C11.2451 34.7509 11.8426 34.9741 12.198 35.0906C12.5525 35.2071 13.185 35.3869 13.6026 35.4912C14.0202 35.5956 14.8402 35.7571 15.4248 35.8507C16.2828 35.9886 16.7095 36.016 17.6388 35.9924C18.272 35.9757 18.8187 35.933 18.8536 35.8965C18.8885 35.8607 18.8536 35.7921 18.7754 35.7441C18.6965 35.6969 18.3578 35.4524 18.0215 35.201C17.6851 34.9497 17.203 34.5011 16.9494 34.204C16.695 33.9077 16.4278 33.5908 16.3549 33.4994C16.2539 33.3753 16.1393 33.3349 15.8804 33.3349C15.6921 33.3349 15.1712 33.2626 14.7225 33.175C14.2738 33.0866 13.8721 33.0066 13.8304 32.9967C13.7886 32.9876 13.6003 32.9381 13.4128 32.8871C13.2245 32.836 12.7978 32.689 12.4637 32.5595C12.1296 32.4308 11.5488 32.181 11.173 32.005C10.7971 31.8291 10.1988 31.5038 9.84425 31.2822C9.48891 31.0605 8.95971 30.6987 8.66739 30.4786C8.37508 30.2577 7.86562 29.8251 7.53458 29.5166C7.20354 29.2081 6.64397 28.63 6.29015 28.2317C5.9371 27.8333 5.36461 27.08 5.01839 26.556C4.67217 26.0327 4.20219 25.2093 3.97289 24.7279C3.74359 24.2466 3.47026 23.5953 3.36472 23.2807C3.25919 22.9669 3.1043 22.4528 3.02078 22.1382C2.9365 21.8244 2.84919 21.4641 2.82641 21.3385C2.80363 21.2128 2.76795 21.0247 2.74669 20.9195C2.72619 20.8152 2.68746 20.592 2.66241 20.4245C2.63659 20.2569 2.58876 19.9309 2.55535 19.7009C2.52195 19.4708 2.49613 18.6482 2.49689 17.8728C2.49841 16.9306 2.54245 16.1865 2.629 15.6259C2.70037 15.1651 2.8173 14.5648 2.88867 14.2929C2.96004 14.021 3.12252 13.4726 3.25008 13.0742C3.37687 12.6766 3.54771 12.1968 3.62971 12.0079C3.71171 11.8198 3.9076 11.4084 4.06628 11.0939C4.22421 10.7801 4.40187 10.4388 4.46034 10.336C4.51956 10.2332 4.78682 9.82187 5.05484 9.42199C5.32361 9.0221 5.7898 8.40362 6.09199 8.04715C6.39417 7.69145 6.85808 7.19179 7.12306 6.93739C7.38804 6.68299 7.79197 6.31129 8.02202 6.11096C8.25132 5.91064 8.81545 5.49477 9.2748 5.18781C9.73415 4.88085 10.5367 4.42308 11.0591 4.1702C11.5807 3.91809 12.469 3.55934 13.0331 3.37349C13.5965 3.18764 14.434 2.9637 14.8933 2.87611C15.3527 2.78852 16.0702 2.68417 16.4878 2.64532C16.9054 2.60571 17.7254 2.58667 18.31 2.60267C18.8946 2.61942 19.5263 2.65218 19.7146 2.67655C19.9029 2.70092 20.3463 2.77176 20.7017 2.83422C21.0562 2.89668 21.552 3.00026 21.8026 3.06501C22.0531 3.12975 22.634 3.30417 23.0933 3.4527C23.5527 3.60123 24.3211 3.91885 24.8017 4.15878C25.2815 4.39871 25.8115 4.67291 25.9785 4.76736C26.1456 4.86257 26.5381 5.11393 26.8517 5.3272C27.1645 5.5397 27.5919 5.84818 27.8007 6.01271C28.0095 6.17723 28.4195 6.54284 28.7118 6.82466C29.0042 7.10648 29.3808 7.48884 29.5478 7.67317C29.7156 7.85826 30.0284 8.23224 30.2425 8.50416C30.4574 8.77608 30.8264 9.29022 31.064 9.64668C31.3009 10.0031 31.7117 10.7397 31.9767 11.2843C32.2416 11.8289 32.5651 12.6005 32.6964 12.9981C32.827 13.3964 33.0161 14.0477 33.1163 14.4453C33.2165 14.8436 33.3388 15.4773 33.3866 15.8544C33.4352 16.2314 33.4853 17.0715 33.4982 17.7205L33.5225 18.9011C33.9204 19.4327 34.0942 19.6811 34.1641 19.7961C34.2347 19.9111 34.4093 20.2881 34.5521 20.6339C34.6948 20.9797 34.8824 21.5449 34.9697 21.8907C35.0562 22.2365 35.1359 22.6562 35.1466 22.8237C35.1572 22.9921 35.1914 23.1292 35.2225 23.1284C35.2536 23.1284 35.262 23.0599 35.2415 22.9761C35.221 22.8923 35.2293 22.8245 35.2605 22.8253C35.2916 22.8268 35.3774 22.612 35.4503 22.3492C35.5239 22.0864 35.6317 21.6317 35.6917 21.3385C35.7509 21.0452 35.8178 20.6682 35.8398 20.5006C35.8618 20.333 35.9066 19.9728 35.94 19.7009C35.9734 19.4289 36.0007 18.6574 36 17.9871C35.9992 17.3168 35.9719 16.5627 35.9392 16.3114C35.9058 16.06 35.8633 15.7348 35.8436 15.5878C35.8238 15.4408 35.776 15.1331 35.7365 14.9023C35.6963 14.6722 35.6492 14.398 35.6317 14.2929C35.6135 14.1886 35.5414 13.8793 35.4715 13.6074C35.4017 13.3355 35.2741 12.8724 35.1876 12.5791C35.101 12.2859 34.8953 11.7032 34.7305 11.2843C34.5657 10.8654 34.2301 10.1281 33.9849 9.64668C33.7397 9.1653 33.3122 8.42799 33.0351 8.00907C32.7579 7.59015 32.4064 7.09353 32.2538 6.90463C32.1019 6.7165 31.9083 6.47657 31.8248 6.37222C31.7413 6.26863 31.3313 5.83752 30.9137 5.41479C30.4961 4.99129 29.8811 4.42384 29.547 4.15345C29.213 3.88229 28.7172 3.50373 28.4461 3.31179C28.1743 3.11985 27.6109 2.76491 27.1933 2.52345C26.7757 2.282 26.0749 1.91487 25.6368 1.70769C25.1988 1.49976 24.3446 1.16462 23.7387 0.962009C23.1328 0.760164 22.2103 0.508048 21.6887 0.402936C21.1663 0.297825 20.5172 0.188905 20.2461 0.159961C19.9743 0.131017 19.6843 0.0914096 19.6007 0.0716059C19.5172 0.0518022 18.7944 0.02362 17.9934 0.00990976C17.1931 -0.00380048 16.5273 -0.00303878 16.5128 0.0106715Z" fill="#757575"/>
<path d="M17.7405 2.61866C17.9288 2.63466 18.2014 2.63466 18.348 2.61866C18.4945 2.60191 18.3404 2.58896 18.0063 2.58896C17.6722 2.58972 17.553 2.60267 17.7405 2.61866ZM33.4838 17.8728C33.4838 18.2293 33.4967 18.3664 33.5127 18.1775C33.5286 17.9886 33.5286 17.6976 33.5127 17.5301C33.4967 17.3625 33.4838 17.5164 33.4838 17.8728Z" fill="#4CAF50"/>
<path d="M14.3998 5.94339C14.1401 6.08202 14.0073 6.22369 13.8471 6.53446L13.636 6.94272L13.6405 13.6836C6.83605 13.6836 6.80417 13.6851 6.45339 13.855C6.25826 13.9494 6.03352 14.1124 5.95304 14.2168C5.87255 14.3219 5.75715 14.5268 5.69717 14.6738C5.60909 14.8908 5.58935 15.5253 5.59087 18.0823C5.59163 20.5806 5.61365 21.2752 5.69717 21.4718C5.75487 21.6081 5.91735 21.8282 6.05781 21.9623C6.19828 22.0956 6.40783 22.2411 6.52248 22.286C6.65839 22.3386 7.93167 22.3667 10.1859 22.3667H13.6405L13.6785 29.3491C14.0004 29.8114 14.2054 30.0216 14.3413 30.1153C14.478 30.209 14.7604 30.3514 14.9692 30.4322L15.3489 30.5784C15.4354 29.1404 15.5045 28.7816 15.7012 28.1913C15.8416 27.7709 16.1271 27.1371 16.3359 26.7822C16.6556 26.2391 16.998 25.8545 18.5059 24.3471C19.4906 23.3622 21.2673 21.5959 22.454 20.4206C23.8427 19.045 24.8146 18.1463 25.1813 17.8987C25.4941 17.687 25.9216 17.428 26.1304 17.3229C26.3392 17.2178 26.6808 17.0769 26.8896 17.0098C27.0984 16.9428 27.3885 16.8659 27.535 16.8392C27.6815 16.8126 28.1766 16.792 28.6359 16.7935C29.0953 16.7958 29.6245 16.8324 29.8128 16.8758C30.0011 16.9192 30.2144 16.9558 30.2873 16.9573C30.4088 16.9588 30.4187 16.8621 30.4012 15.8224C30.3822 14.6966 30.3799 14.6837 30.1544 14.363C30.0292 14.1855 29.8075 13.9776 29.6609 13.9022C29.5144 13.8268 29.3094 13.7491 29.2054 13.73C29.1006 13.7102 27.4864 13.6927 25.6179 13.6889L22.2202 13.6836C22.2202 7.51626 22.1989 6.77896 22.1154 6.58092C22.0585 6.44458 21.9127 6.24121 21.7927 6.12848C21.6727 6.01652 21.4807 5.88779 21.366 5.84285C21.2301 5.7903 20.0335 5.76211 17.9493 5.76211L14.7415 5.76135L14.3998 5.94339Z" fill="#757575"/>
<path fill-rule="evenodd" clip-rule="evenodd" d="M17.9304 5.72098C19.6425 5.72098 20.36 5.73088 19.5248 5.74307C18.6896 5.75525 17.2888 5.75525 16.4118 5.74307C15.5349 5.73088 16.2182 5.72098 17.9304 5.72098ZM22.2771 8.65649C22.2893 9.5568 22.2893 11.0657 22.2771 12.0079C22.265 12.9508 22.2551 12.2135 22.2551 10.3703C22.2551 8.52701 22.265 7.75619 22.2771 8.65649ZM5.57341 16.578C5.58556 17.3952 5.58556 18.7487 5.57341 19.5866C5.56126 20.4244 5.55139 19.7565 5.55139 18.1013C5.55139 16.447 5.56126 15.7614 5.57341 16.578ZM30.4764 15.5116C30.4916 15.7424 30.4916 16.1362 30.4764 16.3875C30.4612 16.6389 30.449 16.45 30.449 15.9686C30.449 15.4872 30.4612 15.2816 30.4764 15.5116ZM28.7498 18.211C29.0626 18.2285 29.541 18.3001 29.8128 18.3702C30.0838 18.441 30.5113 18.5957 30.7619 18.7152C31.0124 18.8348 31.4209 19.0968 31.6692 19.2979C31.9182 19.4982 32.2872 19.8684 32.4907 20.1198C32.6934 20.3711 32.9736 20.8167 33.1133 21.11C33.253 21.4032 33.4269 21.9006 33.5005 22.2144C33.5984 22.6356 33.622 22.9654 33.5916 23.4712C33.565 23.9137 33.4868 24.3326 33.3707 24.6518C33.2712 24.9237 33.0708 25.3518 32.925 25.6023C32.7428 25.9154 32.042 26.6847 30.6859 28.061C29.6002 29.1624 28.6693 30.0627 28.6169 30.062C28.5463 30.0605 28.5311 29.9096 28.5585 29.4694C28.579 29.1449 28.5942 28.742 28.5926 28.5744C28.5919 28.4068 28.5433 28.0466 28.3801 27.2796L29.7338 25.9085C31.0701 24.555 31.0899 24.5307 31.2493 24.0043C31.3381 23.7111 31.4095 23.3424 31.4087 23.1855C31.408 23.0286 31.3366 22.6859 31.2508 22.4239C31.165 22.1618 30.9767 21.7848 30.8332 21.586C30.6897 21.3872 30.4156 21.113 30.2243 20.9767C30.033 20.8403 29.7164 20.6651 29.522 20.5859C29.3018 20.4976 28.9662 20.4404 28.6359 20.4366C28.1811 20.4313 28.0278 20.4679 27.573 20.6865C27.081 20.9233 26.7674 21.2166 23.3743 24.6061C21.3577 26.6215 19.5901 28.4411 19.4474 28.6506C19.3046 28.86 19.1315 29.2546 19.0624 29.5265C18.9819 29.8464 18.9538 30.1564 18.9842 30.4024C19.0093 30.6119 19.1125 30.9547 19.2135 31.1641C19.3145 31.3736 19.5886 31.7247 19.8217 31.9448C20.1428 32.248 20.3524 32.3752 20.6827 32.4689C20.972 32.5511 21.2984 32.5816 21.6507 32.5603C22.0288 32.5367 22.3136 32.4643 22.6378 32.3089C22.981 32.1444 23.3302 31.855 24.0546 31.1321C24.7622 30.4268 25.0674 30.0635 25.2117 29.755C25.3643 29.429 25.4076 29.218 25.4068 28.8029C25.406 28.4274 25.3597 28.1684 25.2489 27.927C25.1631 27.7381 24.9976 27.4646 24.8814 27.3176C24.766 27.1706 24.4866 26.9246 24.2618 26.77C24.0363 26.6154 23.6559 26.4356 23.416 26.3701C23.0417 26.2681 22.9893 26.2323 23.047 26.118C23.0842 26.0449 23.3743 25.7364 23.6924 25.4325C24.0105 25.1286 24.3469 24.8292 24.441 24.7675C24.5936 24.667 24.6521 24.6693 24.9915 24.7919C25.2003 24.8681 25.5245 25.0273 25.7128 25.1469C25.9003 25.2657 26.2374 25.5544 26.4606 25.7882C26.7165 26.0555 26.9739 26.4387 27.1561 26.8226C27.3156 27.1577 27.4826 27.6117 27.5282 27.8318C27.5737 28.0519 27.6102 28.4975 27.6094 28.822C27.6086 29.1464 27.5555 29.6179 27.491 29.8693C27.4257 30.1206 27.2495 30.5837 27.0984 30.8975C26.8593 31.3942 26.6687 31.6234 25.6414 32.6502C24.8366 33.4553 24.3028 33.9237 23.9665 34.1187C23.6947 34.2764 23.2505 34.4767 22.9794 34.5643C22.6659 34.6656 22.1951 34.7379 21.6887 34.7623C21.0988 34.7905 20.7632 34.7684 20.398 34.6762C20.1261 34.6077 19.6653 34.4363 19.373 34.2939C19.0806 34.1522 18.6448 33.8612 18.4049 33.6472C18.124 33.3974 17.9888 33.2252 18.0253 33.1643C18.0627 33.1018 18.0501 33.0891 17.9873 33.1262C17.925 33.1628 17.8089 33.0577 17.6494 32.8208C17.5166 32.622 17.3154 32.2533 17.2038 32.002C17.0914 31.7506 16.9615 31.3652 16.9145 31.1451C16.8674 30.925 16.8302 30.4626 16.8302 30.1168C16.831 29.771 16.8841 29.2653 16.9479 28.9933C17.0124 28.7214 17.1795 28.2583 17.3207 27.9651C17.4611 27.6718 17.7793 27.192 18.0275 26.8987C18.2758 26.6055 18.518 26.3739 18.5651 26.3846C18.6129 26.3953 18.6365 26.3777 18.6175 26.3465C18.5985 26.3153 20.1785 24.6929 22.1291 22.7415C24.0788 20.7901 25.8456 19.0839 26.0544 18.9491C26.2632 18.815 26.6216 18.6345 26.8517 18.5484C27.081 18.4616 27.4743 18.3435 27.7248 18.2856C27.9913 18.2232 28.4165 18.1927 28.7498 18.211ZM23.7941 19.0915C23.8055 19.0915 23.8146 19.0999 23.8154 19.1105C23.8154 19.1212 23.4312 19.5066 22.1063 20.8053L22.94 19.9484C23.3986 19.4769 23.7835 19.0915 23.7941 19.0915ZM10.2239 22.4018C12.1235 22.4018 12.8927 22.4117 11.9322 22.4239C10.9717 22.436 9.41678 22.436 8.47758 22.4239C7.53762 22.4117 8.32345 22.4018 10.2239 22.4018ZM19.3153 23.5092C19.3259 23.5092 19.335 23.5176 19.335 23.5283C19.3358 23.539 18.8825 23.9929 17.323 25.5277L18.3092 24.5185C18.8513 23.9632 19.3039 23.5092 19.3153 23.5092ZM15.4423 29.5265C15.4582 29.6735 15.4582 29.947 15.4423 30.1359C15.4263 30.3248 15.4134 30.2044 15.4127 29.8693C15.4127 29.5341 15.4256 29.3795 15.4423 29.5265Z" fill="#4CAF50"/>
<path fill-rule="evenodd" clip-rule="evenodd" d="M101.696 5.5C103.764 5.5 103.806 5.50637 103.877 5.8583C103.915 6.05577 103.948 11.502 103.95 17.9609C103.951 28.4313 103.926 29.7307 103.721 29.9441C103.541 30.1305 103.089 30.183 101.671 30.183C100.247 30.183 99.8022 30.1305 99.6308 29.9441C99.5005 29.8024 99.4111 29.4138 99.4111 28.2721L98.6422 28.9584C98.219 29.3342 97.4779 29.8136 96.9946 30.0206C96.4556 30.2515 95.6911 30.4251 95.0174 30.4681C94.4126 30.5063 93.5895 30.4633 93.1867 30.3725C92.784 30.2801 92.059 30.0429 91.5757 29.8438C90.9577 29.589 90.4216 29.1957 89.7684 28.5189C89.2588 27.9886 88.6246 27.1255 88.3595 26.6C88.0959 26.0745 87.7766 25.2862 87.6521 24.8483C87.5276 24.4104 87.3797 23.6938 87.3241 23.2558C87.2684 22.8179 87.2347 21.8147 87.2464 21.0264C87.2596 20.2381 87.3416 19.2349 87.4281 18.797C87.513 18.359 87.762 17.5708 87.9787 17.0453C88.1969 16.5198 88.61 15.7315 88.897 15.2936C89.1841 14.8557 89.7714 14.2012 90.2049 13.8413C90.6369 13.4798 91.1539 13.0912 91.356 12.9797C91.5567 12.8683 92.1498 12.6437 92.6741 12.4829C93.2336 12.3093 94.1094 12.1867 94.7978 12.1851C95.552 12.1819 96.3092 12.2934 96.9214 12.4956C97.4442 12.6676 98.1692 13.0387 98.5324 13.3205C98.8941 13.6008 99.2398 13.9097 99.2984 14.0053C99.3584 14.1008 99.4082 12.3874 99.4111 10.1977C99.4126 8.00811 99.4536 6.05577 99.5005 5.8583C99.584 5.50796 99.6308 5.5 101.696 5.5ZM92.6463 17.9721C92.4134 18.3383 92.1264 18.996 92.0078 19.434C91.8891 19.8719 91.7925 20.7493 91.7939 21.3847C91.7954 22.0201 91.8994 22.88 92.0283 23.2956C92.1557 23.7113 92.4354 24.3291 92.6507 24.6683C92.8645 25.0075 93.3039 25.4534 93.6261 25.6588C93.9586 25.8722 94.5912 26.0808 95.0907 26.143C95.7439 26.2226 96.1774 26.1796 96.7749 25.9742C97.2641 25.8069 97.8016 25.4693 98.1414 25.1142C98.4504 24.7926 98.84 24.2432 99.0069 23.8928C99.2295 23.4246 99.3291 22.8545 99.3775 21.743C99.4155 20.9022 99.3745 19.9467 99.2866 19.5932C99.1988 19.2429 98.9278 18.6154 98.6832 18.1998C98.405 17.7268 97.9788 17.2826 97.5438 17.0118C96.999 16.6758 96.6094 16.5691 95.7497 16.523C94.7934 16.472 94.5488 16.5182 93.859 16.886C93.3361 17.1647 92.9246 17.5342 92.6463 17.9721ZM111.494 5.57962L111.567 25.5649L116.071 25.5617C119.512 25.5601 120.618 25.6079 120.76 25.7608C120.889 25.9025 120.945 26.549 120.943 27.9138C120.94 29.7037 120.917 29.8773 120.647 30.0238C120.466 30.1225 117.89 30.183 113.837 30.183C108.24 30.183 107.289 30.1496 107.1 29.9441C106.908 29.7355 106.88 28.1893 106.882 17.9609C106.883 11.502 106.924 6.05417 106.974 5.85352C107.062 5.49522 107.081 5.49204 111.494 5.57962ZM125.7 5.62421C125.942 5.6688 126.304 5.7946 126.506 5.90608C126.706 6.01595 127.017 6.27552 127.193 6.47936C127.37 6.68478 127.617 7.12271 127.742 7.45075C127.868 7.7788 127.969 8.24539 127.967 8.48585C127.966 8.72631 127.844 9.21041 127.699 9.56075C127.554 9.91109 127.226 10.3952 126.97 10.6357C126.715 10.8761 126.226 11.1564 125.883 11.2583C125.397 11.4016 125.132 11.3968 124.675 11.2376C124.353 11.1245 123.84 10.8092 123.537 10.5353C123.232 10.2614 122.919 9.82351 122.838 9.56075C122.758 9.298 122.695 8.79638 122.699 8.44604C122.702 8.0957 122.822 7.52241 122.966 7.17207C123.111 6.82173 123.423 6.37903 123.659 6.18794C123.896 5.99684 124.353 5.7739 124.675 5.69269C124.997 5.61147 125.458 5.58122 125.7 5.62421ZM152.789 5.57962L152.902 6.29623C152.964 6.69115 152.998 9.79007 152.978 13.1836C152.957 16.5771 152.991 19.3543 153.051 19.3543C153.111 19.3543 153.334 19.1218 153.544 18.8368C153.755 18.5517 154.376 17.7826 154.923 17.1249C155.47 16.4688 156.532 15.1948 158.653 12.6628L161.252 12.6644C162.682 12.666 163.852 12.7202 163.851 12.7855C163.851 12.8508 163.735 13.0928 163.594 13.3221C163.454 13.5514 162.68 14.5149 161.875 15.4656C161.069 16.4147 160.016 17.6616 159.536 18.2332C159.057 18.8065 158.442 19.5253 157.694 20.3894L159.751 23.4151C160.883 25.0792 161.989 26.6876 162.209 26.9901C162.429 27.2911 162.921 28.0077 163.304 28.5826C163.687 29.1559 164 29.7148 164 29.8247C163.999 29.9346 163.9 30.0588 163.779 30.1034C163.657 30.148 162.587 30.183 161.399 30.1846C159.813 30.1846 159.161 30.1273 158.946 29.968C158.785 29.8486 158.335 29.2562 157.945 28.6527C157.557 28.0491 156.945 27.1255 156.588 26.6C156.229 26.0745 155.675 25.2512 155.358 24.7687C155.04 24.2862 154.678 23.7495 154.554 23.5743C154.332 23.2638 154.312 23.2734 152.991 24.689L152.988 27.1573C152.986 28.5157 152.928 29.7339 152.859 29.8645C152.759 30.0524 152.323 30.1161 150.787 30.1607C149.152 30.2085 148.799 30.1766 148.584 29.9617C148.344 29.7212 148.328 28.9441 148.329 17.9609C148.331 11.502 148.372 6.05417 148.421 5.85352C148.509 5.49522 148.531 5.49204 152.789 5.57962ZM46.76 5.83123C48.699 5.81053 48.9846 5.84078 49.1897 6.09239C49.3186 6.24845 49.8531 7.23577 50.3774 8.28679C50.9018 9.33781 51.5974 10.736 51.9211 11.3921C52.2462 12.0498 52.7779 13.1247 53.1015 13.7807C53.4267 14.4384 54.1751 15.9529 55.8403 19.3177L56.6458 17.7125C57.0895 16.8303 57.8804 15.241 58.4033 14.182C58.9276 13.1231 59.9821 10.9796 60.7466 9.42062C61.5111 7.86001 62.2858 6.41088 62.4674 6.20068C62.7882 5.82964 62.8614 5.81849 65.1037 5.81212C66.8055 5.80575 67.4587 5.8583 67.5949 6.01118C67.7384 6.17361 67.7692 8.6849 67.7384 17.8415C67.7164 24.2352 67.6666 29.5747 67.6286 29.7053C67.589 29.8358 67.4572 29.9935 67.3371 30.0524C67.217 30.1113 66.3588 30.1639 65.4332 30.1703C64.5076 30.175 63.601 30.1432 63.0899 30.0238L63.0869 14.3381L61.2138 18.0804C60.1827 20.1394 59.0535 22.3959 58.7035 23.0966C58.3549 23.7973 57.8936 24.6572 57.2946 25.6445L54.3025 25.7241L53.9554 25.2066C53.7635 24.9215 52.7984 23.0409 51.8112 21.0264C50.8227 19.012 49.8004 16.9688 49.5382 16.4879C49.2761 16.0054 48.9231 15.3254 48.4427 14.3381L48.4442 22.0217C48.4442 28.7992 48.4164 29.7339 48.2143 29.9441C48.0371 30.1273 47.6035 30.183 46.3469 30.1814C45.4462 30.1798 44.5616 30.1432 44.0505 30.0238L44.0154 18.0119C43.9802 6.1322 43.9831 6.00003 44.2717 5.92837C44.4313 5.88856 45.5517 5.84556 46.76 5.83123ZM77.9552 12.2042C78.8545 12.1979 79.7596 12.2918 80.2985 12.4463C80.7818 12.5848 81.5068 12.881 81.9096 13.104C82.3123 13.3269 82.8923 13.7314 83.1998 14.0037C83.5059 14.2744 84.0098 14.8907 84.3173 15.3732C84.6263 15.8541 84.9866 16.5357 85.1199 16.886C85.2517 17.2364 85.4567 18.0422 85.5754 18.6775C85.694 19.3129 85.7907 20.4053 85.7907 21.106C85.7907 22.0567 85.7321 22.4405 85.5607 22.6189C85.3645 22.8227 84.5209 22.8577 79.8489 22.8577C76.8334 22.8577 74.3656 22.9119 74.3656 22.9772C74.3641 23.0424 74.4754 23.4549 74.6131 23.8928C74.7683 24.3865 75.1023 24.9454 75.4948 25.3658C75.9576 25.8643 76.3764 26.127 77.0765 26.3611C77.7604 26.5904 78.2657 26.6557 78.8706 26.5968C79.3334 26.5506 79.9104 26.4694 80.1521 26.4184C80.3937 26.3659 80.8551 26.1764 81.1773 25.998C81.4995 25.8197 82.0267 25.4646 82.9348 24.7432L83.8501 25.8308C84.3539 26.4296 84.8079 27.0968 84.8592 27.3166C84.931 27.6255 84.868 27.7864 84.5765 28.0332C84.37 28.2084 83.8853 28.6017 83.5001 28.909C83.1134 29.2164 82.4339 29.6241 81.9872 29.8183C81.542 30.0126 80.8155 30.2451 80.3718 30.3375C79.928 30.4298 78.9394 30.5031 78.1749 30.4999C77.1248 30.4967 76.4775 30.3964 75.5387 30.0938C74.8533 29.8725 73.9643 29.4839 73.5615 29.2275C73.1588 28.9711 72.5495 28.4902 72.2083 28.159C71.867 27.8262 71.3544 27.1255 71.0688 26.6C70.7832 26.0745 70.4156 25.1779 70.2545 24.6094C70.0934 24.0393 69.9221 22.9294 69.8738 22.1411C69.8225 21.2732 69.8606 20.2365 69.9719 19.5136C70.0729 18.8559 70.2868 17.9609 70.4464 17.523C70.606 17.0851 70.9605 16.351 71.2329 15.8907C71.5067 15.4305 72.0179 14.7506 72.3694 14.3779C72.7194 14.0053 73.4619 13.4527 74.017 13.147C74.5721 12.8428 75.3556 12.5084 75.7584 12.4049C76.1611 12.3014 77.1497 12.2106 77.9552 12.2042ZM75.4918 17.1376C75.1462 17.4752 74.8255 18.0007 74.6497 18.5183C74.4945 18.9785 74.367 19.3894 74.367 19.434C74.367 19.4769 75.9986 19.5152 77.9918 19.5168L81.6167 19.5199C81.4468 18.5278 81.2915 18.0071 81.1612 17.7221C81.0323 17.437 80.7848 17.0771 80.612 16.9211C80.4391 16.765 80.0686 16.5309 79.7859 16.4003C79.4652 16.2506 78.8354 16.1646 78.1017 16.171C77.4573 16.1774 76.7323 16.2745 76.4907 16.3876C76.249 16.5007 75.7994 16.8383 75.4918 17.1376ZM139.613 12.1947C140.426 12.1851 141.099 12.2854 141.81 12.5243C142.374 12.7122 143.001 12.9782 143.202 13.1151C143.404 13.2536 143.749 13.5483 143.972 13.7728C144.195 13.9957 144.52 14.4289 144.697 14.7362C144.873 15.042 145.135 15.7235 145.28 16.249C145.514 17.0994 145.544 17.9116 145.545 30.0238L145.215 30.1018C145.034 30.1432 144.111 30.1798 143.165 30.1814C141.829 30.183 141.394 30.1289 141.225 29.9441C141.037 29.7403 141.005 28.8788 141.006 24.1715C141.008 18.7428 141 18.6234 140.677 17.9211C140.435 17.3988 140.167 17.1042 139.687 16.8351C139.14 16.5277 138.853 16.4752 138.002 16.5214C137.217 16.5644 136.84 16.671 136.391 16.98C136.017 17.238 135.674 17.6663 135.073 18.9562L135 30.0238L134.524 30.1161C134.262 30.1671 133.279 30.1846 132.339 30.1559C131.399 30.1273 130.598 30.0668 130.557 30.0238C130.516 29.9792 130.467 29.7642 130.448 29.546C130.429 29.3263 130.425 25.4391 130.46 12.666L132.547 12.6692C133.695 12.6692 134.72 12.7234 134.826 12.7887C134.955 12.8667 134.991 13.0976 134.936 13.5021C134.89 13.8301 134.903 14.1024 134.963 14.1056C135.024 14.1104 135.171 13.9957 135.293 13.8524C135.415 13.7091 135.809 13.3874 136.172 13.1374C136.535 12.8858 137.194 12.5753 137.636 12.4447C138.079 12.3157 138.969 12.2026 139.613 12.1947ZM127.458 12.7457L127.49 21.3449C127.521 29.3549 127.506 29.9521 127.27 30.0524C127.132 30.1113 126.211 30.1655 125.224 30.1719C123.814 30.1798 123.383 30.132 123.21 29.9441C123.021 29.7387 122.991 28.5874 122.992 21.544C122.994 17.0548 123.035 13.2202 123.084 13.0196C123.172 12.6613 123.194 12.6581 127.458 12.7457Z" fill="#4CAF50"/>
</svg>
